# xmcd
#
# Track frame offsets: 
#        150
#        15192
#        28727
#        44135
#        59737
#        72050
#        85912
#        103092
#        118362
#        133067
#
# Disc length: 2044 seconds
#
# Revision: 4
# Processed by: cddbd v1.5.2PL0 Copyright (c) Steve Scherf et al.
# Submitted via: ExactAudioCopy v1.1
#
DISCID=9007fa0a
DTITLE=T. Graham Brown - Come As You Were
DYEAR=1988
DGENRE=Country
TTITLE0=Darlene
TTITLE1=This Wanting You
TTITLE2=I Read A Letter Today
TTITLE3=She's Okay And I'm Okay
TTITLE4=The Time Machine
TTITLE5=Come As You Were
TTITLE6=You Left The Water Running
TTITLE7=The Best Love I Never Had
TTITLE8=Never Say Never
TTITLE9=I'll Believe It When I Feel It
EXTD=
EXTT0=
EXTT1=
EXTT2=
EXTT3=
EXTT4=
EXTT5=
EXTT6=
EXTT7=
EXTT8=
EXTT9=
PLAYORDER=
